<svg xmlns="http://www.w3.org/2000/svg" viewBox="0 0 512 640" x="0px" y="0px">
    <defs>
        <linearGradient id="gradient" x1="0%" y1="0%" x2="100%" y2="100%">
            <stop offset="30%" style="stop-color:#665429; stop-opacity:1" />
            <stop offset="90%" style="stop-color:#ffda85; stop-opacity:1" />
        </linearGradient>
    </defs>
    <g fill="url(#gradient)">
<svg xmlns="http://www.w3.org/2000/svg" viewBox="0 0 512 640" x="0px" y="0px"><g><path d="M488,432H464V312H448V432H323.313a35.085,35.085,0,0,0-24.97,10.343A19.187,19.187,0,0,1,284.687,448H227.313a19.187,19.187,0,0,1-13.656-5.657A35.085,35.085,0,0,0,188.687,432H64V200a16.019,16.019,0,0,1,16-16V168a32.036,32.036,0,0,0-32,32V432H24a8,8,0,0,0-8,8v24a32.036,32.036,0,0,0,32,32H464a32.036,32.036,0,0,0,32-32V440A8,8,0,0,0,488,432Zm-8,32a16.019,16.019,0,0,1-16,16H48a16.019,16.019,0,0,1-16-16V448H188.687a19.187,19.187,0,0,1,13.656,5.657A35.085,35.085,0,0,0,227.313,464h57.374a35.085,35.085,0,0,0,24.97-10.343A19.187,19.187,0,0,1,323.313,448H480Z"/><rect x="400" y="344" width="16" height="72"/><path d="M208,104H128a32.036,32.036,0,0,0-32,32V416h16V136a16.019,16.019,0,0,1,16-16h80Z"/><rect x="128" y="136" width="16" height="16"/><rect x="160" y="136" width="16" height="16"/><rect x="192" y="136" width="16" height="16"/><path d="M152,216a24,24,0,1,0,24,24A24.027,24.027,0,0,0,152,216Zm0,32a8,8,0,1,1,8-8A8.009,8.009,0,0,1,152,248Z"/><rect x="192" y="248" width="16" height="16"/><path d="M152,280a24,24,0,1,0,24,24A24.027,24.027,0,0,0,152,280Zm0,32a8,8,0,1,1,8-8A8.009,8.009,0,0,1,152,312Z"/><rect x="192" y="280" width="24" height="16"/><rect x="192" y="312" width="152" height="16"/><path d="M152,344a24,24,0,1,0,24,24A24.027,24.027,0,0,0,152,344Zm0,32a8,8,0,1,1,8-8A8.009,8.009,0,0,1,152,376Z"/><rect x="192" y="344" width="152" height="16"/><rect x="192" y="376" width="112" height="16"/><rect x="320" y="376" width="48" height="16"/><rect x="192" y="216" width="16" height="16"/><rect x="128" y="168" width="80" height="16"/><path d="M456,16H264a40.045,40.045,0,0,0-40,40V256a40.045,40.045,0,0,0,40,40h96v48a8,8,0,0,0,13.657,5.657L427.314,296H456a40.045,40.045,0,0,0,40-40V56A40.045,40.045,0,0,0,456,16Zm24,240a24.027,24.027,0,0,1-24,24H424a8,8,0,0,0-5.657,2.343L376,324.687V288a8,8,0,0,0-8-8H264a24.027,24.027,0,0,1-24-24V56a24.027,24.027,0,0,1,24-24H456a24.027,24.027,0,0,1,24,24Z"/><path d="M368.4,48H351.6A63.67,63.67,0,0,0,288,111.6V128a8,8,0,0,0,8,8h32a8,8,0,0,0,8-8V111.6A15.615,15.615,0,0,1,351.6,96h16.8a15.6,15.6,0,0,1,11.029,26.627l-24.8,24.8A63.181,63.181,0,0,0,336,192.4a8,8,0,0,0,8,8h32a8,8,0,0,0,8-8,15.493,15.493,0,0,1,4.569-11.029l24.8-24.8A63.6,63.6,0,0,0,368.4,48Zm33.657,97.255-24.8,24.8a31.4,31.4,0,0,0-8.239,14.343H352.665a47.243,47.243,0,0,1,13.276-25.657l24.8-24.8A31.6,31.6,0,0,0,368.4,80H351.6A31.634,31.634,0,0,0,320,111.6V120H304v-8.4A47.653,47.653,0,0,1,351.6,64h16.8a47.6,47.6,0,0,1,33.657,81.255Z"/><path d="M376,216H344a8,8,0,0,0-8,8v32a8,8,0,0,0,8,8h32a8,8,0,0,0,8-8V224A8,8,0,0,0,376,216Zm-8,32H352V232h16Z"/></g></svg>    </g>
</svg>