<svg xmlns="http://www.w3.org/2000/svg" viewBox="0 0 512 640" x="0px" y="0px">
    <defs>
        <linearGradient id="gradient" x1="0%" y1="0%" x2="100%" y2="100%">
            <stop offset="30%" style="stop-color:#665429; stop-opacity:1" />
            <stop offset="90%" style="stop-color:#ffda85; stop-opacity:1" />
        </linearGradient>
    </defs>
    <g fill="url(#gradient)">
        <svg xmlns="http://www.w3.org/2000/svg" viewBox="0 0 512 640" x="0px" y="0px"><g><path d="M370.711,226.221A135.153,135.153,0,0,1,376,263.75V480H280v16H384a8,8,0,0,0,8-8V263.75a151.167,151.167,0,0,0-5.918-41.971Z"/><path d="M192,280a32,32,0,1,0-32,32A32.036,32.036,0,0,0,192,280Zm-48,0a16,16,0,1,1,16,16A16.019,16.019,0,0,1,144,280Z"/><path d="M301.657,461.657l24-24a24.009,24.009,0,1,0-11.315-11.315L292.687,448H264V432h24V416H264V392h12.687l13.656,13.657,11.314-11.314-16-16A8,8,0,0,0,280,376H264V360h49.376a24,24,0,1,0,0-16H264V328h32a8,8,0,0,0,5.657-2.343l24-24-.006-.007a24,24,0,1,0-11.3-11.3l-.006-.007L292.687,312H264V296h24V280H264V264h24V248H264V224H248V480H159.61a39.861,39.861,0,0,1-28.455-11.8,39.326,39.326,0,0,1-11.545-28.114L119.788,400H160V384H119.858L120,352.035A8,8,0,0,0,112,344H74.593l33.425-117.513.069-.24-15.356-4.494-.046.163s-.039.131-.039.136l-36.34,127.76A8,8,0,0,0,64,360h39.965l-.355,80.011a55.854,55.854,0,0,0,56,55.989H256a8,8,0,0,0,8-8V464h32A8,8,0,0,0,301.657,461.657ZM336,408a8,8,0,1,1-8,8A8.009,8.009,0,0,1,336,408Zm0-64a8,8,0,1,1-8,8A8.009,8.009,0,0,1,336,344Zm0-72a8,8,0,1,1-8,8A8.009,8.009,0,0,1,336,272Z"/><rect x="216" y="448" width="16" height="16"/><rect x="216" y="384" width="16" height="16"/><rect x="216" y="320" width="16" height="16"/><rect x="216" y="256" width="16" height="16"/><rect x="336" y="448" width="24" height="16"/><path d="M400,16H112a96,96,0,0,0,0,192H304v32a8,8,0,0,0,12.65,6.51L370.563,208H400a96,96,0,0,0,0-192Zm0,176H368a8,8,0,0,0-4.65,1.49L320,224.454V200a8,8,0,0,0-8-8H112a80,80,0,0,1,0-160H400a80,80,0,0,1,0,160Z"/><path d="M256,48a64,64,0,1,0,64,64A64.072,64.072,0,0,0,256,48Zm0,112a48,48,0,1,1,48-48A48.053,48.053,0,0,1,256,160Z"/><path d="M400,48a64,64,0,1,0,64,64A64.072,64.072,0,0,0,400,48Zm0,112a48,48,0,1,1,48-48A48.053,48.053,0,0,1,400,160Z"/><path d="M112,48a64,64,0,1,0,64,64A64.072,64.072,0,0,0,112,48Zm0,112a48,48,0,1,1,48-48A48.053,48.053,0,0,1,112,160Z"/><circle cx="92" cy="100" r="12"/><circle cx="132" cy="100" r="12"/><path d="M83.585,128.959l8.83,13.342a35.432,35.432,0,0,1,39.17,0l8.83-13.342A51.394,51.394,0,0,0,83.585,128.959Z"/><circle cx="236" cy="100" r="12"/><circle cx="276" cy="100" r="12"/><rect x="232" y="128" width="48" height="16"/><circle cx="380" cy="100" r="12"/><circle cx="420" cy="100" r="12"/><path d="M380.416,121.744l-8.832,13.342a51.4,51.4,0,0,0,56.832,0l-8.832-13.342A35.422,35.422,0,0,1,380.416,121.744Z"/></g></svg>
    </g>
</svg>