<svg xmlns="http://www.w3.org/2000/svg" viewBox="0 0 98 122.5" x="0px" y="0px">
    <defs>
        <linearGradient id="gradient" x1="0%" y1="0%" x2="100%" y2="100%">
            <stop offset="30%" style="stop-color:#141937 ; stop-opacity:1" />
            <stop offset="90%" style="stop-color:#4d547d ; stop-opacity:1" />
        </linearGradient>
    </defs>
    <g fill="url(#gradient)">
<svg xmlns="http://www.w3.org/2000/svg" viewBox="0 0 64 80" x="0px" y="0px"><path d="m7.9955,47.5h18c1.31274-.02185,1.31561-1.97766,0-2h-7V15.5h33v6.58008c.01288,1.30902,1.98279,1.31616,2-.00006,0,.00006,0-10.58002,0-10.58002,0-3.30859-2.69141-6-6-6H7.9955c-3.30859,0-6,2.69141-6,6v30c0,3.30859,2.69141,6,6,6ZM21.9955,13.5h-8v-1c0-.55127.44873-1,1-1h6c.55127,0,1,.44873,1,1v1Zm10,0h-8v-1c0-.55127.44873-1,1-1h6c.55127,0,1,.44873,1,1v1ZM7.9955,7.5h40c2.20557,0,4,1.79443,4,4v2h-18v-1c0-1.6543-1.3457-3-3-3h-6c-.77112,0-1.46802.30054-2,.78027-.53198-.47974-1.22888-.78027-2-.78027h-6c-.77112,0-1.46802.30054-2,.78027-.53198-.47974-1.22888-.78027-2-.78027-.04297.013-6.7074-.04004-6.46936.04742.68713-1.21552,1.97632-2.04742,3.46936-2.04742Zm-4,5c0-.55127.44873-1,1-1h6c.55127,0,1,.44873,1,1v1H3.9955v-1Zm0,3h13v30H7.9955c-2.20557,0-4-1.79443-4-4V15.5Z"/><path d="m47.9955,11.5c1.31366-.02545,1.31342-1.9751,0-2-1.31372.02484-1.3136,1.97498,0,2Z"/><path d="m43.9955,11.5c1.31366-.02545,1.31342-1.9751,0-2-1.31372.02484-1.3136,1.97498,0,2Z"/><path d="m39.9955,11.5c1.31366-.02545,1.31342-1.9751,0-2-1.31372.02484-1.3136,1.97498,0,2Z"/><path d="m6.9955,19.5h7c1.31232-.02173,1.31598-1.9776,0-2h-7c-1.31232.02167-1.31592,1.9776,0,2Z"/><path d="m6.99556,23.5c-.00006,0,6.99994,0,6.99994,0,1.31232-.02173,1.31598-1.9776,0-2h-7c-1.31232.02167-1.31592,1.9776.00006,2Z"/><path d="m6.99556,27.5c-.00006,0,6.99994,0,6.99994,0,1.31232-.02173,1.31598-1.9776,0-2h-7c-1.31232.02167-1.31592,1.9776.00006,2Z"/><path d="m30.9955,38.5c-1.6543,0-3,1.3457-3,3v14c0,1.6543,1.3457,3,3,3h4c1.6543,0,3-1.3457,3-3v-14c0-1.6543-1.3457-3-3-3h-4Zm5,3v14c0,.55127-.44873,1-1,1h-4c-.55127,0-1-.44873-1-1v-14c0-.55127.44873-1,1-1h4c.55127,0,1,.44873,1,1Z"/><path d="m42.9955,24.5c-1.6543,0-3,1.3457-3,3v28c0,1.6543,1.3457,3,3,3h4c1.6543,0,3-1.3457,3-3v-28c0-1.6543-1.3457-3-3-3h-4Zm5,3v28c0,.55127-.44873,1-1,1h-4c-.55127,0-1-.44873-1-1v-28c0-.55127.44873-1,1-1h4c.55127,0,1,.44873,1,1Z"/><path d="m58.9955,45.5h-4c-1.6543,0-3,1.3457-3,3v7c0,1.6543,1.3457,3,3,3h4c1.6543,0,3-1.3457,3-3v-7c0-1.6543-1.3457-3-3-3Zm1,10c0,.55127-.44873,1-1,1h-4c-.55127,0-1-.44873-1-1v-7c0-.55127.44873-1,1-1h4c.55127,0,1,.44873,1,1v7Z"/><path d="m43.26064,18.82178l-12,13c-.88116.96295.5766,2.31451,1.46979,1.35638-.00006.00006,11.41058-12.36127,11.41058-12.36127l12.28516,8.50537c.43213.29785,1.02148.21387,1.3501-.19775l4-5c.81152-1.02264-.73889-2.26794-1.56152-1.24896,0-.00006-3.41699,4.27094-3.41699,4.27094l-12.23291-8.46875c-.41064-.28418-.96582-.22266-1.3042.14404Z"/></svg></g></svg>
