<svg xmlns="http://www.w3.org/2000/svg" viewBox="0 0 512 640" x="0px" y="0px">
    <defs>
        <linearGradient id="gradient" x1="0%" y1="0%" x2="100%" y2="100%">
            <stop offset="30%" style="stop-color:#665429; stop-opacity:1" />
            <stop offset="90%" style="stop-color:#ffda85; stop-opacity:1" />
        </linearGradient>
    </defs>
    <g fill="url(#gradient)">
<svg xmlns="http://www.w3.org/2000/svg" xmlns:xlink="http://www.w3.org/1999/xlink" version="1.1" x="0px" y="0px" viewBox="0 0 91 113.75" enable-background="new 0 0 91 91" xml:space="preserve"><g><path d="M66.185,51.68H53.751l0.785-2.777c0.027-0.098,0.041-0.197,0.041-0.299v-4.793c0-2.956-2.404-5.36-5.359-5.36H47.8   c-0.061,0-0.119,0.004-0.213,0.01c-0.594,0.02-1.064,0.506-1.064,1.1v6.168l-1.41,1.986l-6.13,6.697   c-0.829,0.871-1.465,1.91-1.865,3.041h-0.475v-1.643h-3.323h-1.062H10.546c-0.607,0-1.1,0.492-1.1,1.1s0.492,1.1,1.1,1.1h20.573   v24.551H10.546c-0.607,0-1.1,0.492-1.1,1.1s0.492,1.1,1.1,1.1h22.773v-3.023h3.323v-3.658h2.037c1.638,1.926,3.987,3.02,6.53,3.02   h12.18c0.029,0,0.053-0.014,0.082-0.016h3.273c2.48,0,4.5-2.02,4.5-4.5c0-0.9-0.271-1.734-0.729-2.438   c1.975-0.477,3.449-2.246,3.449-4.365c0-1.162-0.455-2.213-1.182-3.014c1.25-0.799,2.088-2.193,2.088-3.785   c0-1.006-0.344-1.924-0.902-2.674c1.596-0.693,2.717-2.279,2.717-4.127C70.687,53.697,68.667,51.68,66.185,51.68z M34.443,79.537   h-1.124V58.01h1.124V79.537z M66.185,58.48h-1.813h-4.457c-0.607,0-1.1,0.492-1.1,1.1s0.492,1.1,1.1,1.1h4.457   c1.268,0,2.299,1.031,2.299,2.301c0,1.268-1.031,2.301-2.299,2.301h-4.457c-0.607,0-1.1,0.492-1.1,1.1s0.492,1.1,1.1,1.1h3.551   c1.268,0,2.299,1.031,2.299,2.299c0,1.27-1.031,2.303-2.299,2.303h-2.721h-0.83h-0.906c-0.607,0-1.1,0.492-1.1,1.1   s0.492,1.1,1.1,1.1h0.906h0.83c1.268,0,2.301,1.031,2.301,2.301c0,1.268-1.033,2.301-2.301,2.301h-6.801   c-0.029,0-0.055,0.014-0.082,0.016H45.21c-2.03,0-3.896-0.939-5.119-2.578l-0.33-0.441h-3.118V59.652h1.293   c0.507,0,0.948-0.348,1.068-0.84c0.263-1.082,0.807-2.078,1.587-2.898l6.191-6.764c0.031-0.035,0.059-0.07,0.086-0.107l1.65-2.326   c0.133-0.188,0.203-0.408,0.203-0.637v-5.43h0.496c1.742,0,3.16,1.418,3.16,3.161v4.641l-1.102,3.885   c-0.012,0.027-0.014,0.057-0.023,0.084l-0.031,0.111c-0.006,0.023,0,0.047-0.006,0.072c-0.01,0.059-0.035,0.113-0.035,0.176   c0,0.027,0.014,0.051,0.016,0.08c0.004,0.121,0.029,0.232,0.07,0.344c0,0.002,0.002,0.004,0.002,0.006   c0.119,0.316,0.363,0.58,0.713,0.68c0.193,0.055,0.385,0.037,0.566-0.01h13.637c1.27,0,2.301,1.033,2.301,2.301   S67.454,58.48,66.185,58.48z"/><path d="M28.521,77.041c0-1.793-1.459-3.252-3.253-3.252c-1.793,0-3.253,1.459-3.253,3.252s1.46,3.252,3.253,3.252   C27.062,80.293,28.521,78.834,28.521,77.041z M24.215,77.041c0-0.58,0.473-1.053,1.053-1.053s1.053,0.473,1.053,1.053   s-0.473,1.053-1.053,1.053S24.215,77.621,24.215,77.041z"/><path d="M64.778,5.982H22.644v30.559h8.103l9.076,9.081v-9.081h15.483v5.881h15.83v6.332l6.33-6.332h5.375V22.234H64.778V5.982z    M37.623,34.341v5.967l-5.966-5.967h-6.813V8.181h37.735v26.16H37.623z M80.642,24.433v15.789h-4.088l-3.219,3.219v-3.219h-15.83   v-3.682h7.273V24.433H80.642z"/><rect x="30.631" y="14.066" width="26.575" height="2.199"/><rect x="30.631" y="19.666" width="26.575" height="2.199"/><rect x="30.631" y="25.265" width="13.88" height="2.199"/></g></svg></g>
</svg>