<svg xmlns="http://www.w3.org/2000/svg" viewBox="0 0 98 122.5" x="0px" y="0px">
    <defs>
        <linearGradient id="gradient" x1="0%" y1="0%" x2="100%" y2="100%">
            <stop offset="30%" style="stop-color:#4d547d ; stop-opacity:1" />
            <stop offset="90%" style="stop-color:#141937 ; stop-opacity:1" />
        </linearGradient>
    </defs>
    <g fill="url(#gradient)">
<svg xmlns="http://www.w3.org/2000/svg" xmlns:xlink="http://www.w3.org/1999/xlink" version="1.1" x="0px" y="0px" viewBox="0 0 98 122.5" style="enable-background:new 0 0 98 98;" xml:space="preserve"><style type="text/css">
	.st0{fill-rule:evenodd;clip-rule:evenodd;}
</style><path d="M84.215,67.918L80.5,64.889c-1.437-1.172-3.559-0.955-4.731,0.481l-0.848,1.04l-6.237-5.116  c0.216-0.492,0.357-1.024,0.402-1.576c0.103-1.271-0.289-2.54-1.072-3.481c-0.364-0.437-0.8-0.797-1.284-1.071  c0.783-1.397,0.892-3.096,0.311-4.307c-0.757-1.581-1.959-2.239-2.975-2.546c1.048-1.561,1.905-3.746-0.07-6.118  c-0.75-0.901-1.736-1.458-2.773-1.652c0.407-1.357,0.266-2.82-0.74-4.082c-0.723-0.905-1.868-1.499-3.141-1.628  c-1.236-0.125-2.41,0.199-3.33,0.907l-5.483-1.816c-1.578-0.523-3-0.448-4.224,0.223c-1.069,0.585-1.92,1.607-2.552,3.031  l-1.606-1.357c-0.933-0.788-2.122-1.162-3.343-1.062c-1.223,0.103-2.331,0.674-3.119,1.607c-0.788,0.933-1.165,2.12-1.062,3.343  c0.022,0.267,0.071,0.527,0.137,0.781c-1.011,0.203-1.917,0.733-2.588,1.532c-1.123,1.334-1.352,3.131-0.754,4.653  c-0.817,0.258-1.547,0.739-2.111,1.412c-1.387,1.655-1.404,4.021-0.176,5.694c-0.639,0.278-1.211,0.699-1.671,1.25  c-1.193,1.429-1.369,3.389-0.61,4.977l-6.086,5.067c-1.207-1.151-3.108-1.265-4.435-0.185l-3.715,3.029  c-1.436,1.172-1.652,3.294-0.481,4.731l15.623,19.161c0.664,0.814,1.633,1.236,2.609,1.236c0.747,0,1.499-0.247,2.122-0.755  l3.715-3.029c1.437-1.171,1.653-3.294,0.482-4.732l-1.845-2.263l10.439-8.361c0.519,0.057,1.028,0.118,1.528,0.179  c1.708,0.206,3.377,0.403,5.013,0.353l11.118,9.12l-0.793,0.972c-1.171,1.437-0.955,3.559,0.481,4.731l3.716,3.029  c0.623,0.508,1.374,0.755,2.122,0.755c0.976,0,1.945-0.422,2.609-1.236l15.623-19.162C85.868,71.212,85.652,69.09,84.215,67.918z   M45.587,36.489c0.556-0.305,1.243-0.315,2.103-0.03l3.896,1.29l-4.611,3.839l-3.069-2.592  C44.33,37.728,44.903,36.864,45.587,36.489z M35.725,38.088c0.328-0.388,0.791-0.626,1.303-0.669  c0.056-0.005,0.111-0.007,0.166-0.007c0.452,0,0.884,0.156,1.23,0.448l7.358,6.215c0.388,0.328,0.626,0.791,0.669,1.303  s-0.114,1.008-0.442,1.396c-0.328,0.388-0.791,0.626-1.303,0.669c-0.51,0.043-1.008-0.113-1.396-0.441l-7.358-6.215  C35.146,40.106,35.044,38.895,35.725,38.088z M32.216,43.74c0.326-0.388,0.786-0.625,1.295-0.668  c0.506-0.045,1.002,0.114,1.389,0.442l6.07,5.152c0.808,0.685,0.91,1.902,0.228,2.713c-0.327,0.388-0.787,0.625-1.296,0.668  c-0.511,0.045-1.002-0.114-1.389-0.442l-0.278-0.236l-4.478-3.821c-0.091-0.078-0.187-0.148-0.283-0.218l-1.031-0.875  C31.636,45.768,31.534,44.551,32.216,43.74z M29.355,49.801c0.325-0.388,0.783-0.625,1.289-0.667  c0.054-0.004,0.108-0.007,0.161-0.007c0.384,0,0.75,0.122,1.064,0.339l4.601,3.904l0.397,0.339c0.808,0.69,0.911,1.914,0.228,2.728  c-0.325,0.388-0.782,0.624-1.288,0.667c-0.494,0.041-0.976-0.111-1.358-0.427l-2.544-2.183c-0.066-0.056-0.135-0.106-0.203-0.158  l-2.119-1.808h0C28.775,51.839,28.673,50.615,29.355,49.801z M27.511,56.742c0.324-0.388,0.779-0.624,1.282-0.666  c0.053-0.004,0.106-0.007,0.159-0.007c0.399,0,0.778,0.132,1.1,0.369l2.641,2.254c0.008,0.007,0.018,0.012,0.027,0.019l1.323,1.135  c0.809,0.694,0.91,1.924,0.227,2.742c-0.323,0.387-0.779,0.624-1.282,0.666c-0.502,0.044-0.991-0.116-1.373-0.445l-3.876-3.326l0,0  C26.93,58.789,26.828,57.56,27.511,56.742z M32.517,87.194l-3.715,3.029c-0.192,0.156-0.403,0.161-0.508,0.15  c-0.108-0.011-0.311-0.058-0.467-0.249L12.205,70.963c-0.238-0.291-0.192-0.738,0.099-0.976l3.715-3.029  c0.126-0.103,0.281-0.153,0.436-0.153c0.203,0,0.405,0.086,0.54,0.252l15.623,19.161C32.855,86.51,32.809,86.957,32.517,87.194z   M45.128,71.437c-0.688-0.083-1.394-0.168-2.121-0.241c-0.347-0.035-0.695,0.068-0.968,0.286L31.154,80.2L20.486,67.116l6.115-5.091  l3.275,2.81c0.831,0.713,1.866,1.095,2.948,1.095c0.128,0,0.256-0.005,0.385-0.016c1.22-0.101,2.325-0.675,3.11-1.615  c1.134-1.358,1.349-3.194,0.716-4.736c0.816-0.258,1.544-0.739,2.107-1.411c0.834-0.995,1.17-2.248,1.042-3.453  c1.199-0.115,2.284-0.682,3.059-1.602c0.732-0.87,1.082-1.936,1.073-2.995c0.076,0.004,0.152,0.019,0.228,0.019  c1.304,0,2.601-0.552,3.506-1.625c1.183-1.401,1.375-3.309,0.656-4.875l6.884-5.731c0.376-0.313,0.916-0.459,1.483-0.402  c0.547,0.056,1.055,0.3,1.325,0.638c0.798,1,0.12,2.506-0.923,3.417c-0.551,0.481-0.612,1.315-0.138,1.871  c0.474,0.556,1.307,0.628,1.87,0.16c0.395-0.329,0.888-0.477,1.392-0.42c0.516,0.059,0.995,0.325,1.347,0.747  c1.063,1.276,0.546,2.189-0.887,3.969l-0.099,0.123c-0.563,0.702-0.443,1.326-0.322,1.635c0.336,0.854,1.193,0.978,1.76,1.06  c0.977,0.142,1.761,0.329,2.237,1.322c0.284,0.594,0.028,2.112-1.087,2.713c-0.554,0.298-0.825,0.943-0.649,1.547  c0.175,0.604,0.746,1.009,1.376,0.96c0.643-0.046,1.279,0.221,1.69,0.714c0.341,0.409,0.51,0.977,0.463,1.558  c-0.046,0.575-0.3,1.094-0.697,1.424l-10.735,8.938C52.096,72.278,49.172,71.925,45.128,71.437z M53.305,73.846  c1.147-0.39,2.278-0.998,3.396-1.928l10.285-8.563l6.248,5.125L62.625,81.491L53.305,73.846z M82.627,70.962L67.005,90.124  c-0.238,0.291-0.685,0.336-0.975,0.099l-3.715-3.029c-0.291-0.238-0.337-0.684-0.099-0.976l15.623-19.162  c0.238-0.291,0.685-0.336,0.976-0.099l3.715,3.029C82.819,70.224,82.865,70.671,82.627,70.962z M87.723,10.138L73.047,5.027  c-0.284-0.099-0.594-0.099-0.878,0l-14.677,5.112c-0.536,0.187-0.896,0.692-0.896,1.26v0.243  c-0.001,12.356-0.002,24.027,15.512,30.289c0.16,0.065,0.33,0.097,0.5,0.097s0.339-0.032,0.5-0.097  c15.514-6.262,15.513-17.933,15.512-30.29v-0.243C88.619,10.831,88.26,10.325,87.723,10.138z M72.608,39.25  C59.522,33.736,59.27,24.281,59.266,12.347l13.342-4.646l13.342,4.646C85.946,24.28,85.693,33.736,72.608,39.25z M72.045,26.192  l7.675-9.236c0.47-0.567,1.313-0.645,1.88-0.173c0.567,0.471,0.645,1.313,0.173,1.88L73.316,28.84  c-0.262,0.316-0.643,0.482-1.027,0.482c-0.264,0-0.53-0.078-0.761-0.239l-6.595-4.587c-0.605-0.421-0.755-1.253-0.334-1.858  c0.421-0.606,1.254-0.754,1.858-0.334L72.045,26.192z"/></svg>    </g>
</svg>
