<svg xmlns="http://www.w3.org/2000/svg" viewBox="0 0 98 122.5" x="0px" y="0px">
    <defs>
        <linearGradient id="gradient" x1="0%" y1="0%" x2="100%" y2="100%">
            <stop offset="30%" style="stop-color:#141937 ; stop-opacity:1" />
            <stop offset="90%" style="stop-color:#4d547d ; stop-opacity:1" />
        </linearGradient>
    </defs>
    <g fill="url(#gradient)">
<svg xmlns="http://www.w3.org/2000/svg" data-name="Layer 1" viewBox="0 0 95 118.75" x="0px" y="0px"><defs><style>.cls-1{fill-rule:evenodd;}</style></defs><title>a</title><path class="cls-1" d="M72.4,69.478A25.171,25.171,0,0,0,51.58,48.222a12.862,12.862,0,1,0-8.16,0A25.171,25.171,0,0,0,22.6,69.478a36.9,36.9,0,1,1,49.808,0ZM37.449,36.031A10.051,10.051,0,1,0,47.5,25.981a10.062,10.062,0,0,0-10.051,10.05ZM63.4,69.6a9.923,9.923,0,0,1-.73,6.278,37.152,37.152,0,0,0,7.132-4.23,22.344,22.344,0,0,0-44.6,0,36.94,36.94,0,0,0,7.132,4.23A9.812,9.812,0,0,1,47.5,64.3a9.979,9.979,0,0,1,15.9,5.3ZM47.5,89.273C56.962,81.391,61.756,74.505,60.669,70.3A7.163,7.163,0,0,0,48.52,67.17a1.4,1.4,0,0,1-2.04,0A7.17,7.17,0,0,0,34.323,70.3c-1.079,4.2,3.715,11.09,13.177,18.974Zm28.08-75.14A39.719,39.719,0,1,0,34.472,79.748c3.01,4.441,7.754,8.862,12.141,12.437a1.406,1.406,0,0,0,1.774,0c4.387-3.575,9.131-8,12.141-12.437A39.726,39.726,0,0,0,75.58,14.133Z"/></svg></g>
</svg>
